<svg width="400" height="300" viewBox="0 0 400 300" fill="none" xmlns="http://www.w3.org/2000/svg">
<rect width="400" height="300" fill="#BB2726"/>
<rect x="92" width="216" height="285" fill="#F3AC3C"/>
<mask id="path-2-outside-1_334_36" maskUnits="userSpaceOnUse" x="117" y="0" width="166" height="132" fill="black">
<rect fill="white" x="117" width="166" height="132"/>
<path d="M127 0H273V122H127V0Z"/>
</mask>
<path d="M127 0H273V122H127V0Z" fill="#F3AC3C"/>
<path d="M273 122V132H283V122H273ZM127 122H117V132H127V122ZM263 0V122H283V0H263ZM273 112H127V132H273V112ZM137 122V0H117V122H137Z" fill="#BB2726" mask="url(#path-2-outside-1_334_36)"/>
<rect x="160" width="80" height="65" fill="#BB2726"/>
<rect x="122" y="127" width="55" height="20" fill="white" stroke="#BB2726" stroke-width="10"/>
<rect x="223" y="127" width="55" height="20" fill="white" stroke="#BB2726" stroke-width="10"/>
<path d="M142 290H147V285V248H142C147 248 147 247.998 147 247.996L147 247.991L147 247.981L147 247.956L146.999 247.889C146.999 247.837 146.997 247.769 146.995 247.686C146.991 247.519 146.983 247.291 146.968 247.004C146.938 246.431 146.879 245.621 146.768 244.592C146.544 242.534 146.104 239.599 145.243 235.922C143.52 228.565 140.111 218.256 133.375 206.08C126.419 193.505 116.588 184.377 108.614 178.43C104.611 175.443 101.028 173.224 98.4293 171.742C97.1284 171.001 96.0699 170.442 95.3233 170.062C94.9499 169.872 94.6541 169.727 94.4446 169.626C94.3399 169.575 94.2567 169.536 94.1961 169.507L94.1223 169.473L94.0984 169.462L94.0897 169.458L94.0862 169.456C94.0847 169.455 94.0833 169.455 92 174L94.0833 169.455L87 166.208V174V285V290H92H142ZM89.9101 178.542C89.9101 178.542 89.9109 178.543 89.9125 178.543L89.9124 178.543L89.9103 178.542L89.9101 178.542Z" fill="#F3AC3C" stroke="#BB2726" stroke-width="10"/>
<path d="M258 290H253V285V248H258C253 248 253 247.998 253 247.996L253 247.991L253 247.981L253 247.956L253.001 247.889C253.001 247.837 253.003 247.769 253.005 247.686C253.009 247.519 253.017 247.291 253.032 247.004C253.062 246.431 253.121 245.621 253.232 244.592C253.456 242.534 253.896 239.599 254.757 235.922C256.48 228.565 259.889 218.256 266.625 206.08C273.581 193.505 283.412 184.377 291.386 178.43C295.389 175.443 298.972 173.224 301.571 171.742C302.872 171.001 303.93 170.442 304.677 170.062C305.05 169.872 305.346 169.727 305.555 169.626C305.66 169.575 305.743 169.536 305.804 169.507L305.878 169.473L305.902 169.462L305.91 169.458L305.914 169.456C305.915 169.455 305.917 169.455 308 174L305.917 169.455L313 166.208V174V285V290H308H258ZM310.09 178.542C310.09 178.542 310.089 178.543 310.087 178.543L310.088 178.543L310.09 178.542L310.09 178.542Z" fill="#F3AC3C" stroke="#BB2726" stroke-width="10"/>
<rect x="147" y="243" width="106" height="47" fill="#F3AC3C" stroke="#BB2726" stroke-width="10"/>
</svg>
